<mxfile host="app.diagrams.net" agent="Mozilla/5.0 (X11; Linux x86_64) AppleWebKit/537.36 (KHTML, like Gecko) Chrome/131.0.0.0 Safari/537.36" version="25.0.3">
  <diagram name="Página-1" id="bVI4PTIekLjrMTRFe5lo">
    <mxGraphModel dx="1380" dy="754" grid="1" gridSize="10" guides="1" tooltips="1" connect="1" arrows="1" fold="1" page="1" pageScale="1" pageWidth="827" pageHeight="1169" math="0" shadow="0">
      <root>
        <mxCell id="0" />
        <mxCell id="1" parent="0" />
        <mxCell id="VyThhMQr0gEMtDfcRVGN-1" value="&lt;h3&gt;&lt;strong&gt;Diagrama de Flujo de Comandos Git&lt;/strong&gt;&lt;/h3&gt;&lt;ol&gt;&lt;li&gt;&lt;p&gt;&lt;strong&gt;Inicio&lt;/strong&gt;&lt;/p&gt;&lt;/li&gt;&lt;li&gt;&lt;p&gt;&lt;strong&gt;¿Iniciar un repositorio?&lt;/strong&gt;&lt;/p&gt;&lt;ul&gt;&lt;li&gt;&lt;strong&gt;Sí:&lt;/strong&gt; &lt;code&gt;git init&lt;/code&gt; ➔ Crear un nuevo repositorio local.&lt;/li&gt;&lt;li&gt;&lt;strong&gt;No:&lt;/strong&gt; Continuar con los siguientes pasos.&lt;/li&gt;&lt;/ul&gt;&lt;/li&gt;&lt;li&gt;&lt;p&gt;&lt;strong&gt;¿Clonar un repositorio remoto?&lt;/strong&gt;&lt;/p&gt;&lt;ul&gt;&lt;li&gt;&lt;strong&gt;Sí:&lt;/strong&gt; &lt;code&gt;git clone &amp;lt;url_del_repositorio&amp;gt;&lt;/code&gt; ➔ Clonar el repositorio desde una URL remota.&lt;/li&gt;&lt;li&gt;&lt;strong&gt;No:&lt;/strong&gt; Continuar.&lt;/li&gt;&lt;/ul&gt;&lt;/li&gt;&lt;li&gt;&lt;p&gt;&lt;strong&gt;¿Ver el estado del repositorio?&lt;/strong&gt;&lt;/p&gt;&lt;ul&gt;&lt;li&gt;&lt;strong&gt;Sí:&lt;/strong&gt; &lt;code&gt;git status&lt;/code&gt; ➔ Ver el estado actual (archivos modificados, nuevos, no rastreados, etc.).&lt;/li&gt;&lt;li&gt;&lt;strong&gt;No:&lt;/strong&gt; Continuar.&lt;/li&gt;&lt;/ul&gt;&lt;/li&gt;&lt;li&gt;&lt;p&gt;&lt;strong&gt;¿Añadir archivos al área de preparación (staging)?&lt;/strong&gt;&lt;/p&gt;&lt;ul&gt;&lt;li&gt;&lt;strong&gt;Sí:&lt;/strong&gt; &lt;code&gt;git add &amp;lt;archivo&amp;gt;&lt;/code&gt; o &lt;code&gt;git add .&lt;/code&gt; ➔ Añadir archivos específicos o todos los cambios.&lt;/li&gt;&lt;li&gt;&lt;strong&gt;No:&lt;/strong&gt; Continuar.&lt;/li&gt;&lt;/ul&gt;&lt;/li&gt;&lt;li&gt;&lt;p&gt;&lt;strong&gt;¿Realizar un commit?&lt;/strong&gt;&lt;/p&gt;&lt;ul&gt;&lt;li&gt;&lt;strong&gt;Sí:&lt;/strong&gt; &lt;code&gt;git commit -m &quot;mensaje del commit&quot;&lt;/code&gt; ➔ Guardar los cambios con un mensaje descriptivo.&lt;/li&gt;&lt;li&gt;&lt;strong&gt;No:&lt;/strong&gt; Continuar.&lt;/li&gt;&lt;/ul&gt;&lt;/li&gt;&lt;li&gt;&lt;p&gt;&lt;strong&gt;¿Ver el historial de commits?&lt;/strong&gt;&lt;/p&gt;&lt;ul&gt;&lt;li&gt;&lt;strong&gt;Sí:&lt;/strong&gt; &lt;code&gt;git log&lt;/code&gt; ➔ Ver el historial de los commits realizados.&lt;/li&gt;&lt;li&gt;&lt;strong&gt;No:&lt;/strong&gt; Continuar.&lt;/li&gt;&lt;/ul&gt;&lt;/li&gt;&lt;li&gt;&lt;p&gt;&lt;strong&gt;¿Ver las diferencias entre cambios?&lt;/strong&gt;&lt;/p&gt;&lt;ul&gt;&lt;li&gt;&lt;strong&gt;Sí:&lt;/strong&gt; &lt;code&gt;git diff&lt;/code&gt; ➔ Ver las diferencias entre los archivos modificados y el último commit.&lt;/li&gt;&lt;li&gt;&lt;strong&gt;No:&lt;/strong&gt; Continuar.&lt;/li&gt;&lt;/ul&gt;&lt;/li&gt;&lt;li&gt;&lt;p&gt;&lt;strong&gt;¿Deseas trabajar con ramas?&lt;/strong&gt;&lt;/p&gt;&lt;ul&gt;&lt;li&gt;&lt;strong&gt;Sí:&lt;/strong&gt;&lt;ul&gt;&lt;li&gt;Para crear una nueva rama: &lt;code&gt;git branch &amp;lt;nombre_de_rama&amp;gt;&lt;/code&gt;&lt;/li&gt;&lt;li&gt;Para cambiar de rama: &lt;code&gt;git checkout &amp;lt;nombre_de_rama&amp;gt;&lt;/code&gt;&lt;/li&gt;&lt;li&gt;Para combinar ramas (merge): &lt;code&gt;git merge &amp;lt;nombre_de_rama&amp;gt;&lt;/code&gt;&lt;/li&gt;&lt;/ul&gt;&lt;/li&gt;&lt;li&gt;&lt;strong&gt;No:&lt;/strong&gt; Continuar.&lt;/li&gt;&lt;/ul&gt;&lt;/li&gt;&lt;li&gt;&lt;p&gt;&lt;strong&gt;¿Deseas actualizar tu repositorio con los cambios del remoto?&lt;/strong&gt;&lt;/p&gt;&lt;ul&gt;&lt;li&gt;&lt;strong&gt;Sí:&lt;/strong&gt; &lt;code&gt;git pull&lt;/code&gt; ➔ Traer los cambios desde el repositorio remoto a tu repositorio local.&lt;/li&gt;&lt;li&gt;&lt;strong&gt;No:&lt;/strong&gt; Continuar.&lt;/li&gt;&lt;/ul&gt;&lt;/li&gt;&lt;li&gt;&lt;p&gt;&lt;strong&gt;¿Subir los cambios al repositorio remoto?&lt;/strong&gt;&lt;/p&gt;&lt;ul&gt;&lt;li&gt;&lt;strong&gt;Sí:&lt;/strong&gt; &lt;code&gt;git push origin &amp;lt;nombre_de_rama&amp;gt;&lt;/code&gt; ➔ Subir los commits de la rama local al repositorio remoto.&lt;/li&gt;&lt;li&gt;&lt;strong&gt;No:&lt;/strong&gt; Continuar.&lt;/li&gt;&lt;/ul&gt;&lt;/li&gt;&lt;li&gt;&lt;p&gt;&lt;strong&gt;¿Deseas eliminar una rama?&lt;/strong&gt;&lt;/p&gt;&lt;ul&gt;&lt;li&gt;&lt;strong&gt;Sí:&lt;/strong&gt; &lt;code&gt;git branch -d &amp;lt;nombre_de_rama&amp;gt;&lt;/code&gt; ➔ Eliminar la rama localmente (si ya fue fusionada).&lt;/li&gt;&lt;li&gt;&lt;strong&gt;No:&lt;/strong&gt; Continuar.&lt;/li&gt;&lt;/ul&gt;&lt;/li&gt;&lt;li&gt;&lt;p&gt;&lt;strong&gt;¿Deseas deshacer cambios?&lt;/strong&gt;&lt;/p&gt;&lt;ul&gt;&lt;li&gt;&lt;strong&gt;Sí:&lt;/strong&gt;&lt;ul&gt;&lt;li&gt;Para deshacer el último commit (pero mantener los cambios): &lt;code&gt;git reset --soft HEAD~1&lt;/code&gt;&lt;/li&gt;&lt;li&gt;Para deshacer los cambios en el área de preparación: &lt;code&gt;git reset &amp;lt;archivo&amp;gt;&lt;/code&gt;&lt;/li&gt;&lt;li&gt;Para revertir un commit: &lt;code&gt;git revert &amp;lt;commit_id&amp;gt;&lt;/code&gt;&lt;/li&gt;&lt;/ul&gt;&lt;/li&gt;&lt;li&gt;&lt;strong&gt;No:&lt;/strong&gt; Continuar.&lt;/li&gt;&lt;/ul&gt;&lt;/li&gt;&lt;li&gt;&lt;p&gt;&lt;strong&gt;Fin&lt;/strong&gt;&lt;/p&gt;&lt;/li&gt;&lt;/ol&gt;" style="text;whiteSpace=wrap;html=1;" vertex="1" parent="1">
          <mxGeometry x="40" y="60" width="560" height="1160" as="geometry" />
        </mxCell>
      </root>
    </mxGraphModel>
  </diagram>
</mxfile>
